# xmcd
#
# Track frame offsets:
#	150
#	19855
#	31362
#	47422
#	61060
#	81129
#	96942
#	118980
#	130285
#	142005
#	157045
#	177515
#
# Disc length: 2589 seconds
#
# Revision: 0
# Processed by: cddbd v1.5.1PL2 Copyright (c) Steve Scherf et al.
# Submitted via: audiograbber 1.83.01
#
DISCID=a50a1b0c
DTITLE=Kevin Spencer Family - If The Altar Could Talk
DYEAR=1900
DGENRE=Southern Gospel
TTITLE0=If The Altar Could Talk
TTITLE1=The Son Hath Made Me Free
TTITLE2=What A Day That Will Be
TTITLE3=Hold Fast To The Right
TTITLE4=Jerusalem
TTITLE5=It's Not Over
TTITLE6=Barabbas
TTITLE7=There Is A Fountain
TTITLE8=Cross Over The Cross
TTITLE9=So Much To Thank Him For
TTITLE10=Over My Head
TTITLE11=Rough Side Of The Mountain
EXTD=
EXTT0=
EXTT1=
EXTT2=
EXTT3=
EXTT4=
EXTT5=
EXTT6=
EXTT7=
EXTT8=
EXTT9=
EXTT10=
EXTT11=
PLAYORDER=
